<?xml version="1.0" encoding="utf-8"?>
<!-- Generator: Adobe Illustrator 25.4.1, SVG Export Plug-In . SVG Version: 6.00 Build 0)  -->
<svg version="1.1" id="圖層_1" xmlns="http://www.w3.org/2000/svg" xmlns:xlink="http://www.w3.org/1999/xlink" x="0px" y="0px"
	 viewBox="0 0 225.28 225.89" style="enable-background:new 0 0 225.28 225.89;" xml:space="preserve">
<style type="text/css">
	.st0{fill:#FFFFFF;}
	.st1{fill:#485157;}
	.st2{fill:#EFC2AC;}
	.st3{fill:#601986;}
	.st4{fill:#172A88;}
	.st5{fill:#EA5514;}
	.st6{fill:#2EA7E0;}
	.st7{fill:#171C61;}
	.st8{fill:#036EB8;}
	.st9{fill:#F39800;}
	.st10{fill:#E4007F;}
	.st11{fill:#22AC38;}
	.st12{fill:#A40B5D;}
	.st13{fill:#D70051;}
	.st14{fill:#8FC31F;}
	.st15{fill:#F8B62D;}
	.st16{fill:#FCFDFD;}
</style>
<circle class="st0" cx="113.5" cy="115.75" r="95.19"/>
<g>
	<path class="st1" d="M22.14,141.65c-1.1-3.53-1.93-7.13-2.57-10.77c-0.13-0.73-0.41-1.5,0.03-2.24c1.77-0.2,3.55-0.36,5.31-0.6
		c3.22-0.43,6.43-0.91,9.65-1.37c3.09-0.44,6.18-0.85,9.27-1.3c3.02-0.44,6.04-0.92,9.06-1.37c2.9-0.43,5.8-0.84,8.69-1.28
		c0.48-0.07,0.93-0.29,1.4-0.45c-0.28-1.16-0.11-2.26-0.41-3.25c-0.24-0.06-0.36-0.12-0.49-0.12c-4.02,0.05-8.04,0.08-12.06,0.18
		c-8.04,0.2-16.07,0.44-24.11,0.67c-1.98,0.06-3.95,0.13-5.93,0.19c-0.56,0.02-1.15,0.18-1.68-0.15c0-3.38-0.01-6.75,0-10.13
		c0-0.83,0.05-1.66,0.07-2.48c0.25-0.01,0.51-0.06,0.76-0.04c3.62,0.29,7.23,0.59,10.85,0.89c1.4,0.12,2.79,0.23,4.19,0.36
		c2.09,0.2,4.18,0.43,6.27,0.62c3.49,0.31,6.98,0.57,10.47,0.88c3.61,0.32,7.22,0.68,10.84,1.01c0.23,0.02,0.47-0.06,0.75-0.1
		c0.16-1.06,0.35-2.03,0.18-2.96c-0.25-0.12-0.35-0.21-0.47-0.23c-6.72-1.36-13.45-2.71-20.17-4.09
		c-5.91-1.22-11.81-2.45-17.71-3.73c-1.54-0.33-3.14-0.47-4.61-1.09c0.57-3.61,1.4-7.16,2.44-10.67c0.2-0.66,0.6-0.71,1.14-0.59
		c7.43,2.4,14.86,4.82,22.29,7.2c5.74,1.84,11.5,3.63,17.26,5.42c0.46,0.14,0.95,0.17,1.49,0.27c0.26-1.01,0.73-1.85,0.67-2.86
		c-13.52-5.54-26.82-11.42-40.15-17.25c1.05-2.89,2.3-5.69,3.74-8.41c0.23-0.43,0.56-0.81,0.84-1.21c0.46,0.22,0.92,0.42,1.37,0.66
		c11.87,6.28,23.74,12.55,35.61,18.83c0.43,0.23,0.9,0.4,1.4,0.63c0.49-0.85,0.92-1.6,1.39-2.41c-0.55-0.38-1.01-0.72-1.48-1.02
		c-6.52-4.23-13.05-8.45-19.57-12.69c-5.13-3.34-10.23-6.71-15.35-10.06c0.03-0.19,0-0.41,0.09-0.55c1.84-2.94,3.62-5.91,6.01-8.46
		c0.57,0.39,1.16,0.76,1.7,1.18c8.92,6.92,17.84,13.85,26.77,20.77c1.91,1.48,3.85,2.94,5.83,4.45c0.44-0.47,0.83-0.87,1.2-1.29
		c0.41-0.46,0.82-0.92,1.26-1.43c-0.43-0.44-0.77-0.81-1.14-1.16c-5.27-5.11-10.56-10.2-15.81-15.33c-4.7-4.6-9.35-9.24-14.02-13.87
		c2.51-3,5.44-5.54,8.47-7.98c0.19-0.15,0.46-0.21,0.69-0.32c0.03,0.06,0.05,0.12,0.08,0.17C62.9,51.39,71.83,62.05,80.75,72.7
		c0.23,0.28,0.51,0.52,0.79,0.8c1.11-0.81,2.12-1.54,3.17-2.31c-0.33-0.52-0.6-0.95-0.88-1.38c-7.25-11.02-14.5-22.03-21.74-33.05
		c-0.35-0.53-0.63-1.1-0.94-1.65c3.45-2.41,7.19-4.27,11-6.02c0.17-0.08,0.37-0.07,0.56-0.09C78.81,41.4,84.9,53.79,91,66.19
		c0.18,0.38,0.44,0.72,0.65,1.06c1.04-0.44,1.97-0.83,2.91-1.22c-0.06-0.28-0.09-0.46-0.14-0.64c-3.1-9.23-6.21-18.46-9.28-27.7
		c-1.34-4.04-2.6-8.11-3.9-12.16c3.31-1.21,6.67-2.21,10.17-2.67c0.83,4.05,1.59,8.13,2.51,12.16c2.12,9.31,4.31,18.61,6.47,27.91
		c0.1,0.41,0.28,0.81,0.43,1.23c0.91-0.18,1.7-0.34,2.54-0.51c-0.03-0.67-0.04-1.24-0.09-1.8c-0.22-2.16-0.45-4.31-0.68-6.47
		c-0.3-2.79-0.59-5.58-0.88-8.37c-0.33-3.17-0.67-6.34-1-9.51c-0.34-3.23-0.7-6.47-1.01-9.7c-0.21-2.16-0.35-4.32-0.52-6.48
		c1.96-0.16,3.91-0.34,5.87-0.48c1.58-0.11,3.16-0.17,4.74-0.25c0.03,0.76,0.1,1.52,0.1,2.29c0.01,7.91,0,15.81,0.01,23.72
		c0,4.78,0,9.57,0.03,14.35c0,0.62-0.17,1.27,0.24,1.91c0.91-0.09,1.85-0.02,2.8-0.28c0.65-4.62,1.28-9.16,1.92-13.7
		c0.57-4.04,1.16-8.07,1.74-12.1c0.45-3.15,0.89-6.31,1.34-9.46c0.31-2.14,0.65-4.28,0.98-6.42c3.59,0.18,7.14,0.69,10.68,1.34
		c0.49,0.09,0.99,0.14,1.49,0.21c-0.12,0.69-0.17,1.39-0.35,2.06c-2.96,11.14-5.94,22.27-8.92,33.41c-0.41,1.53-0.79,3.06-1.2,4.66
		c1.51,0,2.9,0,4.35,0c0.25-0.56,0.48-1.07,0.7-1.59c3.34-7.85,6.7-15.7,9.99-23.57c1.7-4.05,3.28-8.15,4.91-12.23
		c0.31,0.04,0.64,0.03,0.93,0.13c3.45,1.12,6.83,2.43,10.11,3.97c0.39,0.18,0.77,0.41,1.26,0.67
		c-5.89,10.92-11.99,21.64-18.11,32.62c3.79,0.15,7.34,0.06,10.88,0.14c3.64,0.08,7.27,0.19,10.91,0.25
		c3.57,0.06,7.14,0.08,10.86,0.12c-0.11,0.5-0.15,0.93-0.3,1.3c-2.13,5.25-4.28,10.5-6.41,15.74c-0.26,0.64-0.47,1.31-0.7,1.97
		c-0.51,1-1.02,1.99-1.5,2.94c-0.33,0.02-0.52,0.05-0.7,0.04c-3.31-0.18-6.62-0.42-9.94-0.54c-5.67-0.2-11.35-0.33-17.03-0.48
		c-1.47-0.04-2.93-0.07-4.4-0.08c-9.57-0.06-19.14-0.13-28.71-0.16c-1.01,0-2.05,0.09-3.04,0.3c-3.34,0.71-5.79,2.55-7.05,5.8
		c-0.51,1.32-0.73,2.69-0.73,4.11c0.02,7.27,0.01,14.55,0.01,21.82c0,0.69,0,1.39,0,2.01c-2.2,1.86-3.4,4.14-3.81,6.81
		c-0.41,2.61-0.3,5.24,0.49,7.77c3.02,9.63,9.42,15.79,19.18,18.43c0.49,0.13,0.97,0.27,1.49,0.42c0.08,0.46,0.17,0.9,0.22,1.34
		c0.19,1.45,0.36,2.91,0.55,4.36c0.58,4.36,1.17,8.72,1.73,13.08c0.45,3.48,0.88,6.96,1.32,10.43c0.46,3.6,0.92,7.21,1.39,10.81
		c0.46,3.54,0.96,7.08,1.36,10.62c0.19,1.7,0.71,3.38,0.5,5.12c-1.98-1.71-3.97-3.4-5.93-5.12c-3.16-2.78-6.28-5.61-9.45-8.38
		c-0.68-0.59-0.96-1.23-1.02-2.13c-0.34-5.35-0.73-10.69-1.12-16.03c-0.04-0.49-0.15-1.01-0.35-1.46c-2.12-4.7-4.27-9.39-6.41-14.08
		c-0.08-0.17-0.19-0.33-0.34-0.59c-0.31,0.35-0.61,0.64-0.86,0.98c-7.57,10.1-15.13,20.21-22.71,30.31c-0.8,1.06-1.55,2.16-2.51,3.2
		c-0.88-0.59-1.7-1.09-2.45-1.66c-2.48-1.89-4.95-3.81-7.41-5.73c-0.38-0.3-0.89-0.55-0.88-1.16c0.09-0.09,0.19-0.17,0.28-0.26
		c9.6-10.13,19.2-20.26,28.79-30.4c0.21-0.22,0.4-0.47,0.64-0.77c-0.97-0.92-1.87-1.78-2.8-2.67c-0.76,0.64-1.45,1.2-2.13,1.78
		c-7.04,5.99-14.07,11.98-21.11,17.96c-3.06,2.6-6.14,5.17-9.21,7.76c-0.34,0.29-0.65,0.63-1.15,0.57
		c-1.05-1.25-2.13-2.48-3.14-3.76c-1.45-1.83-2.83-3.7-4.27-5.53c-0.27-0.35-0.28-0.67-0.13-1.04c0.17-0.08,0.36-0.14,0.51-0.24
		c11.49-7.7,22.98-15.4,34.47-23.11c0.3-0.2,0.57-0.44,0.85-0.67c-0.73-1.15-1.4-2.22-2.13-3.37c-0.57,0.29-1.07,0.54-1.57,0.8
		c-11.79,6.18-23.57,12.37-35.36,18.55c-0.62,0.32-1.26,0.6-1.89,0.9c-2.06-3.44-3.69-7.08-5.26-10.76
		c-0.18-0.43-0.23-0.85,0.02-1.27c0.3-0.08,0.62-0.14,0.91-0.26c11.61-4.49,23.22-8.98,34.84-13.48c1.59-0.62,3.18-1.23,4.84-1.87
		c-0.4-1.28-0.7-2.49-1.24-3.54c-0.22-0.02-0.28-0.04-0.34-0.03c-12.71,3.4-25.41,6.81-38.12,10.2
		C24.88,141.11,23.5,141.35,22.14,141.65z"/>
	<path class="st2" d="M111.36,207.1c0.2-1.74-0.31-3.42-0.5-5.12c-0.4-3.55-0.91-7.08-1.36-10.62c-0.47-3.6-0.93-7.21-1.39-10.81
		c-0.44-3.48-0.87-6.96-1.32-10.43c-0.57-4.36-1.16-8.72-1.73-13.08c-0.19-1.45-0.36-2.91-0.55-4.36c-0.06-0.44-0.14-0.87-0.22-1.34
		c-0.52-0.15-1.01-0.29-1.49-0.42c-9.76-2.64-16.16-8.8-19.18-18.43c-0.79-2.53-0.9-5.15-0.49-7.77c0.42-2.67,1.61-4.95,3.81-6.81
		c0-0.62,0-1.32,0-2.01c0-7.27,0.01-14.55-0.01-21.82c0-1.42,0.21-2.79,0.73-4.11c1.26-3.25,3.71-5.09,7.05-5.8
		c0.99-0.21,2.03-0.3,3.04-0.3c9.57,0.04,19.14,0.1,28.71,0.16c1.47,0.01,2.94,0.04,4.4,0.08c5.68,0.15,11.35,0.28,17.03,0.48
		c3.31,0.12,6.62,0.36,9.94,0.54c0.19,0.01,0.38-0.02,0.7-0.04c0.48-0.95,0.99-1.95,1.5-2.94c2.88,2.53,5.63,5.18,7.69,8.45
		c2.61,4.14,4.41,8.59,5.4,13.39c0.86,4.22,0.86,8.48,0.74,12.74c-0.02,0.75-0.24,1.5-0.37,2.25c-2.44-0.42-4.87-0.91-7.33-1.24
		c-2.97-0.4-5.94-0.79-8.93-0.96c-3.44-0.2-6.89-0.19-10.33-0.19c-15.25-0.02-30.5-0.01-45.75-0.01c-2.04,0-4.08-0.01-6.13-0.01
		c-0.29,0-0.66-0.08-0.74,0.41c2.56,2.27,5.16,4.52,7.7,6.85c0.86,0.79,1.73,1.11,2.9,1.11c10.34-0.05,20.67-0.03,31.01-0.03
		c0.29,0,0.65-0.13,0.81,0.35c-0.1,0.18-0.21,0.41-0.34,0.62c-2.52,4.14-2.94,8.65-2.08,13.29c0.95,5.14,3.79,9.13,8.03,12.11
		c4.35,3.05,9.18,4.12,14.35,2.88c9.2-2.21,14.89-10.53,14.95-18.34c0-0.57-0.02-1.15,0.04-1.72c0.02-0.2,0.26-0.38,0.4-0.57
		c1.22,1.05,1.87,2.52,2.76,3.81c0.39,0.56,0.84,1.08,1.26,1.62c0.14,0.41,0.22,0.85,0.43,1.23c0.81,1.49,1.65,2.96,2.51,4.43
		c0.15,0.26,0.41,0.45,0.62,0.67c0.08,0.3,0.09,0.66,0.26,0.9c0.68,0.98,0.86,2.12,1.1,3.23c0.1,0.47,0.03,1-0.06,1.49
		c-0.63,3.46-2.93,4.84-5.9,5.31c-1.84,0.29-3.68,0.3-5.52,0.31c-0.5,0-0.99,0.08-1.57,0.13c-0.06,0.44-0.16,0.81-0.16,1.17
		c-0.02,1.15-0.01,2.3-0.03,3.45c-0.01,1.14-0.01,2.28-0.26,3.42c-0.19,0.86-0.04,1.78-0.13,2.67c-0.1,1.01-0.21,2.03-0.45,3.01
		c-0.3,1.21-1.07,1.79-2.35,1.86c-0.83,0.05-1.66,0.01-2.49,0.01c-2.74,0-5.49,0.01-8.23-0.01c-0.73,0-1.37,0.13-1.91,0.69
		c-0.98,1.03-0.85,2.52,0.34,3.27c0.71,0.45,1.49,0.69,2.35,0.67c1.4-0.03,2.81-0.01,4.21,0c0.45,0,0.9-0.01,1.34,0.03
		c0.65,0.06,0.97,0.32,1.04,0.92c0.3,2.4,0.69,4.79,0.12,7.21c-0.2,0.86-0.12,1.76-0.42,2.63c-1.03,3.07-3.19,4.88-6.26,5.58
		c-1.99,0.45-4.04,0.64-6.08,0.43c-2.02-0.21-4.02-0.56-6.03-0.89c-2.59-0.43-5.07-1.23-7.52-2.12c-1.67-0.61-3.31-1.33-4.96-2
		c-0.23-0.09-0.47-0.17-0.79-0.28c-0.23,0.32-0.52,0.58-0.66,0.91c-1.39,3.28-2.75,6.58-4.13,9.87c-1.26,3-2.52,5.99-3.79,8.98
		c-0.52,1.23-1.05,2.46-1.59,3.69c-0.1,0.22-0.24,0.42-0.36,0.63c-0.77,0.05-1.28-0.35-1.76-0.75c-1.67-1.38-3.33-2.77-4.99-4.15
		C111.79,207.36,111.57,207.24,111.36,207.1z"/>
	<path class="st1" d="M179.6,145.25c-0.21-0.22-0.47-0.42-0.62-0.67c-0.85-1.46-1.69-2.94-2.51-4.43c-0.2-0.37-0.29-0.82-0.43-1.23
		c0.85-3.06,1.25-6.17,1.37-9.35c-0.26,0.02-0.41-0.02-0.49,0.04c-1.64,1.29-3.27,2.59-4.9,3.89c-0.14,0.19-0.37,0.37-0.4,0.57
		c-0.06,0.57-0.04,1.15-0.04,1.72c-0.06,7.81-5.74,16.13-14.95,18.34c-5.17,1.24-10,0.17-14.35-2.88
		c-4.24-2.98-7.08-6.98-8.03-12.11c-0.86-4.64-0.44-9.15,2.08-13.29c0.13-0.21,0.24-0.44,0.34-0.62c-0.16-0.49-0.52-0.35-0.81-0.35
		c-10.34,0-20.67-0.01-31.01,0.03c-1.18,0.01-2.05-0.32-2.9-1.11c-2.53-2.33-5.14-4.58-7.7-6.85c0.08-0.49,0.45-0.41,0.74-0.41
		c2.04,0,4.08,0.01,6.13,0.01c15.25,0,30.5-0.01,45.75,0.01c3.44,0,6.9,0,10.33,0.19c2.98,0.17,5.96,0.56,8.93,0.96
		c2.45,0.33,4.88,0.82,7.33,1.24c1.76,0.52,3.52,1.03,5.27,1.58c1.57,0.49,3.13,1.03,4.68,1.56c0.29,0.1,0.56,0.27,0.95,0.46
		c-0.06,1.46-0.07,2.91-0.18,4.36c-0.45,5.66-1.55,11.18-3.68,16.47C180.24,144.02,179.9,144.63,179.6,145.25z M141.24,135.34
		c-0.31,5.52,4.41,11.52,11.52,11.57c5.92,0.04,11.37-4.93,11.39-11.56c0.02-6.83-5.69-11.59-11.36-11.54
		C146.19,123.86,141.05,129.3,141.24,135.34z"/>
	<path class="st3" d="M140.59,25.21c-1.63,4.08-3.21,8.18-4.91,12.23c-3.3,7.87-6.66,15.71-9.99,23.57
		c-0.22,0.52-0.46,1.03-0.7,1.59c-1.44,0-2.83,0-4.35,0c0.41-1.6,0.79-3.13,1.2-4.66c2.97-11.14,5.95-22.27,8.92-33.41
		c0.18-0.67,0.24-1.37,0.35-2.06c1.58,0.38,3.16,0.74,4.73,1.14c1.21,0.31,2.41,0.65,3.61,1.02
		C139.85,24.75,140.21,25.01,140.59,25.21z"/>
	<path class="st4" d="M30.58,161.74c0.63-0.3,1.28-0.58,1.89-0.9c11.79-6.18,23.57-12.36,35.36-18.55c0.5-0.26,1-0.51,1.57-0.8
		c0.72,1.15,1.4,2.22,2.13,3.37c-0.29,0.22-0.56,0.47-0.85,0.67c-11.49,7.71-22.98,15.41-34.47,23.11c-0.16,0.1-0.34,0.16-0.51,0.24
		c-0.46-0.05-0.87-0.22-1.12-0.64C33.24,166.07,31.91,163.91,30.58,161.74z"/>
	<path class="st5" d="M61.15,35.11c0.31,0.55,0.59,1.13,0.94,1.65c7.24,11.02,14.49,22.04,21.74,33.05
		c0.28,0.42,0.54,0.85,0.88,1.38c-1.05,0.77-2.06,1.5-3.17,2.31c-0.28-0.28-0.56-0.53-0.79-0.8C71.83,62.05,62.9,51.39,53.98,40.73
		c-0.04-0.05-0.06-0.11-0.08-0.17c0.57-1.16,1.78-1.61,2.68-2.4c1.18-1.05,2.56-1.87,3.87-2.78C60.65,35.24,60.92,35.2,61.15,35.11z
		"/>
	<path class="st6" d="M18.32,119.8c0.53,0.34,1.12,0.17,1.68,0.15c1.98-0.06,3.95-0.14,5.93-0.19c8.03-0.23,16.07-0.47,24.11-0.67
		c4.02-0.1,8.04-0.12,12.06-0.18c0.12,0,0.24,0.06,0.49,0.12c0.3,0.98,0.12,2.08,0.41,3.25c-0.47,0.15-0.92,0.38-1.4,0.45
		c-2.89,0.45-5.79,0.85-8.69,1.28c-3.02,0.45-6.04,0.93-9.06,1.37c-3.09,0.45-6.18,0.86-9.27,1.3c-3.22,0.45-6.43,0.93-9.65,1.37
		c-1.77,0.24-3.54,0.4-5.31,0.6c-0.16-0.26-0.43-0.5-0.47-0.78c-0.18-1.24-0.31-2.5-0.43-3.75
		C18.56,122.68,18.44,121.24,18.32,119.8z"/>
	<path class="st7" d="M43.23,179.2c0.51,0.05,0.81-0.29,1.15-0.57c3.07-2.59,6.15-5.16,9.21-7.76c7.04-5.98,14.08-11.97,21.11-17.96
		c0.68-0.58,1.36-1.14,2.13-1.78c0.93,0.88,1.83,1.74,2.8,2.67c-0.25,0.3-0.43,0.55-0.64,0.77c-9.6,10.13-19.19,20.26-28.79,30.4
		c-0.09,0.09-0.18,0.18-0.28,0.26c-0.8-0.12-1.37-0.61-1.91-1.17c-1.45-1.5-2.89-3.01-4.33-4.52
		C43.55,179.41,43.38,179.32,43.23,179.2z"/>
	<path class="st8" d="M22.14,141.65c1.36-0.3,2.74-0.55,4.09-0.9c12.71-3.39,25.41-6.8,38.12-10.2c0.06-0.01,0.12,0.01,0.34,0.03
		c0.54,1.05,0.84,2.25,1.24,3.54c-1.65,0.64-3.25,1.25-4.84,1.87c-11.61,4.49-23.22,8.99-34.84,13.48
		c-0.29,0.11-0.61,0.17-0.91,0.26c-0.51-0.2-0.81-0.59-0.97-1.09C23.62,146.3,22.88,143.98,22.14,141.65z"/>
	<path class="st9" d="M44.74,48.86c4.67,4.63,9.32,9.27,14.02,13.87c5.25,5.13,10.54,10.22,15.81,15.33
		c0.36,0.35,0.71,0.72,1.14,1.16c-0.45,0.51-0.85,0.97-1.26,1.43c-0.38,0.42-0.77,0.82-1.2,1.29c-1.99-1.51-3.92-2.97-5.83-4.45
		c-8.92-6.92-17.84-13.85-26.77-20.77c-0.55-0.42-1.13-0.79-1.7-1.18c0.53-1.32,1.57-2.28,2.44-3.35
		C42.38,50.98,43.61,49.96,44.74,48.86z"/>
	<path class="st10" d="M81.24,25.53c1.3,4.05,2.55,8.12,3.9,12.16c3.07,9.24,6.19,18.46,9.28,27.7c0.06,0.17,0.08,0.35,0.14,0.64
		c-0.94,0.39-1.87,0.78-2.91,1.22c-0.21-0.34-0.47-0.68-0.65-1.06C84.9,53.79,78.81,41.4,72.72,29c0.71-0.8,1.77-0.94,2.68-1.32
		C77.31,26.88,79.29,26.24,81.24,25.53z"/>
	<path class="st11" d="M19.73,98.71c1.47,0.63,3.07,0.76,4.61,1.09c5.9,1.28,11.8,2.51,17.71,3.73c6.72,1.38,13.45,2.72,20.17,4.09
		c0.12,0.02,0.22,0.11,0.47,0.23c0.17,0.93-0.02,1.9-0.18,2.96c-0.28,0.04-0.52,0.12-0.75,0.1c-3.61-0.33-7.22-0.69-10.84-1.01
		c-3.49-0.31-6.98-0.57-10.47-0.88c-2.09-0.18-4.18-0.42-6.27-0.62c-1.39-0.13-2.79-0.24-4.19-0.36c-3.62-0.3-7.23-0.6-10.85-0.89
		c-0.25-0.02-0.51,0.02-0.76,0.04c0.38-2.59,0.44-5.22,1.1-7.77C19.55,99.17,19.65,98.94,19.73,98.71z"/>
	<path class="st12" d="M118.94,20.92c-0.33,2.14-0.67,4.27-0.98,6.42c-0.46,3.15-0.89,6.31-1.34,9.46
		c-0.58,4.04-1.17,8.07-1.74,12.1c-0.64,4.54-1.27,9.08-1.92,13.7c-0.95,0.26-1.89,0.19-2.8,0.28c-0.4-0.64-0.23-1.3-0.24-1.91
		c-0.02-4.78-0.02-9.57-0.03-14.35c0-7.91,0-15.81-0.01-23.72c0-0.76-0.06-1.53-0.1-2.29c1.85-0.01,3.7-0.07,5.55-0.02
		C116.54,20.61,117.74,20.8,118.94,20.92z"/>
	<path class="st13" d="M99.18,21.32c0.17,2.16,0.31,4.32,0.52,6.48c0.31,3.24,0.67,6.47,1.01,9.7c0.33,3.17,0.67,6.34,1,9.51
		c0.29,2.79,0.59,5.58,0.88,8.37c0.23,2.16,0.46,4.31,0.68,6.47c0.06,0.56,0.06,1.13,0.09,1.8c-0.85,0.17-1.63,0.33-2.54,0.51
		c-0.15-0.42-0.33-0.81-0.43-1.23c-2.17-9.3-4.36-18.6-6.47-27.91c-0.92-4.04-1.68-8.11-2.51-12.16c1.59-0.38,3.17-0.8,4.77-1.14
		C97.17,21.53,98.18,21.45,99.18,21.32z"/>
	<path class="st14" d="M24.88,80.24c13.33,5.83,26.63,11.71,40.15,17.25c0.06,1.01-0.41,1.84-0.67,2.86
		c-0.54-0.09-1.03-0.12-1.49-0.27c-5.76-1.8-11.51-3.59-17.26-5.42c-7.44-2.38-14.86-4.8-22.29-7.2c-0.23-0.21-0.45-0.41-0.67-0.61
		C22.98,85.06,24.13,81.66,24.88,80.24z"/>
	<path class="st15" d="M32.85,64.55c5.12,3.35,10.22,6.72,15.35,10.06c6.52,4.24,13.05,8.46,19.57,12.69
		c0.47,0.31,0.93,0.64,1.48,1.02c-0.47,0.81-0.9,1.57-1.39,2.41c-0.51-0.23-0.97-0.4-1.4-0.63c-11.87-6.27-23.74-12.55-35.61-18.83
		c-0.45-0.24-0.91-0.44-1.37-0.66c0-0.06-0.01-0.13,0.01-0.19C30.19,68.23,31.26,66.25,32.85,64.55z"/>
	<path class="st16" d="M141.24,135.34c-0.2-6.05,4.95-11.48,11.55-11.53c5.67-0.05,11.38,4.71,11.36,11.54
		c-0.02,6.63-5.47,11.6-11.39,11.56C145.66,146.86,140.94,140.86,141.24,135.34z"/>
</g>
</svg>
